<?xml version="1.0" standalone="no"?>
<!DOCTYPE svg PUBLIC "-//W3C//DTD SVG 20010904//EN"
 "http://www.w3.org/TR/2001/REC-SVG-20010904/DTD/svg10.dtd">
<svg version="1.0" xmlns="http://www.w3.org/2000/svg"
 width="30" height="30" viewBox="0 0 104.000000 125.000000"
 preserveAspectRatio="xMidYMid meet">

<g transform="translate(0.000000,125.000000) scale(0.100000,-0.100000)"
fill="#000000" stroke="none">
<path d="M141 1120 c-76 -18 -119 -34 -129 -46 -11 -15 -13 -40 -9 -109 26
-431 366 -794 802 -854 169 -24 175 -20 212 146 21 96 24 127 16 146 -8 18
-43 38 -134 77 -68 29 -134 53 -148 53 -25 0 -42 -16 -106 -96 l-30 -37 -60
39 c-91 58 -149 114 -205 197 -27 42 -50 79 -50 84 0 5 27 30 60 56 33 26 63
57 66 70 7 27 -90 261 -118 287 -25 21 -29 21 -167 -13z"/>
<path d="M811 1013 l-114 -107 -22 28 -22 28 -56 -149 c-30 -81 -54 -149 -53
-150 1 -2 247 71 275 82 11 4 9 11 -10 31 l-24 26 113 108 113 108 -42 48
c-23 27 -42 50 -43 51 -1 1 -53 -46 -115 -104z"/>
</g>
</svg>
