<svg width="24" height="24" viewBox="0 0 24 24" fill="none" xmlns="http://www.w3.org/2000/svg">
<g clip-path="url(#clip0_286_2)">
<path d="M20.8125 2.33907C20.2172 1.79063 17.8078 0.0421899 12.4359 0.0187524C12.4359 0.0187524 6.10313 -0.360935 3.01876 2.47031C1.30313 4.18594 0.698445 6.70313 0.63282 9.82032C0.567195 12.9375 0.487507 18.7781 6.11719 20.3625H6.12188L6.11719 22.7813C6.11719 22.7813 6.07969 23.7609 6.72657 23.9578C7.50469 24.2016 7.96407 23.4563 8.70938 22.6547C9.1172 22.2141 9.6797 21.5672 10.1063 21.075C13.9594 21.3984 16.9172 20.6578 17.2547 20.55C18.0328 20.2969 22.4344 19.7344 23.1469 13.8938C23.8875 7.86563 22.7906 4.05938 20.8125 2.33907ZM21.4641 13.4531C20.8594 18.3281 17.2922 18.6375 16.6359 18.8484C16.3547 18.9375 13.7531 19.5844 10.4859 19.3734C10.4859 19.3734 8.04844 22.3125 7.28907 23.0766C7.04063 23.325 6.76876 23.3016 6.77344 22.8094C6.77344 22.4859 6.79219 18.7922 6.79219 18.7922C6.78751 18.7922 6.78751 18.7922 6.79219 18.7922C2.02032 17.4703 2.30157 12.4969 2.35313 9.89532C2.4047 7.29375 2.89688 5.16094 4.35001 3.72656C6.96095 1.35938 12.3375 1.71094 12.3375 1.71094C16.8797 1.72969 19.0547 3.09844 19.5609 3.55781C21.2344 4.99219 22.0875 8.42344 21.4641 13.4531ZM14.9484 9.66563C14.9672 10.0688 14.3625 10.0969 14.3438 9.69375C14.2922 8.6625 13.8094 8.16094 12.8156 8.10469C12.4125 8.08125 12.45 7.47657 12.8484 7.5C14.1563 7.57032 14.8828 8.32031 14.9484 9.66563ZM15.9 10.1953C15.9469 8.20782 14.7047 6.65156 12.3469 6.47813C11.9484 6.45 11.9906 5.84531 12.3891 5.87344C15.1078 6.07031 16.5563 7.94063 16.5047 10.2094C16.5 10.6125 15.8906 10.5938 15.9 10.1953ZM18.1031 10.8234C18.1078 11.2266 17.4984 11.2313 17.4984 10.8281C17.4703 7.00782 14.925 4.92656 11.8359 4.90313C11.4375 4.89844 11.4375 4.29844 11.8359 4.29844C15.2906 4.32188 18.0703 6.70781 18.1031 10.8234ZM17.5734 15.4219V15.4313C17.0672 16.3219 16.1203 17.3063 15.1453 16.9922L15.1359 16.9781C14.1469 16.7016 11.8172 15.5016 10.3453 14.3297C9.58594 13.7297 8.8922 13.0219 8.35782 12.3422C7.87501 11.7375 7.38751 11.0203 6.91407 10.1578C5.91563 8.35313 5.69532 7.54688 5.69532 7.54688C5.38126 6.57188 6.36095 5.625 7.25626 5.11875H7.26563C7.69688 4.89375 8.10938 4.96875 8.38594 5.30156C8.38594 5.30156 8.9672 5.99531 9.21563 6.3375C9.45001 6.65625 9.76407 7.16719 9.92813 7.45313C10.2141 7.96407 10.0359 8.48438 9.7547 8.7L9.1922 9.15C8.90626 9.37969 8.94376 9.80625 8.94376 9.80625C8.94376 9.80625 9.77813 12.9609 12.8953 13.7578C12.8953 13.7578 13.3219 13.7953 13.5516 13.5094L14.0016 12.9469C14.2172 12.6656 14.7375 12.4875 15.2484 12.7734C15.9375 13.1625 16.8141 13.7672 17.3953 14.3156C17.7234 14.5828 17.7984 14.9906 17.5734 15.4219Z" fill="#7E3300"/>
</g>
<defs>
<clipPath id="clip0_286_2">
<rect width="24" height="24" fill="white"/>
</clipPath>
</defs>
</svg>
