<svg width="40" height="40" viewBox="0 0 40 40" fill="none" xmlns="http://www.w3.org/2000/svg">
<circle cx="20" cy="20" r="20" fill="#76499A"/>
<g clip-path="url(#clip0_201_7)">
<path d="M28.8125 10.3391C28.2172 9.79063 25.8078 8.04219 20.4359 8.01875C20.4359 8.01875 14.1031 7.63906 11.0188 10.4703C9.30313 12.1859 8.69845 14.7031 8.63282 17.8203C8.5672 20.9375 8.48751 26.7781 14.1172 28.3625H14.1219L14.1172 30.7813C14.1172 30.7813 14.0797 31.7609 14.7266 31.9578C15.5047 32.2016 15.9641 31.4563 16.7094 30.6547C17.1172 30.2141 17.6797 29.5672 18.1063 29.075C21.9594 29.3984 24.9172 28.6578 25.2547 28.55C26.0328 28.2969 30.4344 27.7344 31.1469 21.8938C31.8875 15.8656 30.7906 12.0594 28.8125 10.3391ZM29.4641 21.4531C28.8594 26.3281 25.2922 26.6375 24.6359 26.8484C24.3547 26.9375 21.7531 27.5844 18.4859 27.3734C18.4859 27.3734 16.0484 30.3125 15.2891 31.0766C15.0406 31.325 14.7688 31.3016 14.7734 30.8094C14.7734 30.4859 14.7922 26.7922 14.7922 26.7922C14.7875 26.7922 14.7875 26.7922 14.7922 26.7922C10.0203 25.4703 10.3016 20.4969 10.3531 17.8953C10.4047 15.2938 10.8969 13.1609 12.35 11.7266C14.9609 9.35938 20.3375 9.71094 20.3375 9.71094C24.8797 9.72969 27.0547 11.0984 27.5609 11.5578C29.2344 12.9922 30.0875 16.4234 29.4641 21.4531ZM22.9484 17.6656C22.9672 18.0688 22.3625 18.0969 22.3438 17.6938C22.2922 16.6625 21.8094 16.1609 20.8156 16.1047C20.4125 16.0813 20.45 15.4766 20.8484 15.5C22.1563 15.5703 22.8828 16.3203 22.9484 17.6656ZM23.9 18.1953C23.9469 16.2078 22.7047 14.6516 20.3469 14.4781C19.9484 14.45 19.9906 13.8453 20.3891 13.8734C23.1078 14.0703 24.5563 15.9406 24.5047 18.2094C24.5 18.6125 23.8906 18.5938 23.9 18.1953ZM26.1031 18.8234C26.1078 19.2266 25.4984 19.2313 25.4984 18.8281C25.4703 15.0078 22.925 12.9266 19.8359 12.9031C19.4375 12.8984 19.4375 12.2984 19.8359 12.2984C23.2906 12.3219 26.0703 14.7078 26.1031 18.8234ZM25.5734 23.4219V23.4313C25.0672 24.3219 24.1203 25.3063 23.1453 24.9922L23.1359 24.9781C22.1469 24.7016 19.8172 23.5016 18.3453 22.3297C17.5859 21.7297 16.8922 21.0219 16.3578 20.3422C15.875 19.7375 15.3875 19.0203 14.9141 18.1578C13.9156 16.3531 13.6953 15.5469 13.6953 15.5469C13.3813 14.5719 14.3609 13.625 15.2563 13.1188H15.2656C15.6969 12.8938 16.1094 12.9688 16.3859 13.3016C16.3859 13.3016 16.9672 13.9953 17.2156 14.3375C17.45 14.6563 17.7641 15.1672 17.9281 15.4531C18.2141 15.9641 18.0359 16.4844 17.7547 16.7L17.1922 17.15C16.9063 17.3797 16.9438 17.8063 16.9438 17.8063C16.9438 17.8063 17.7781 20.9609 20.8953 21.7578C20.8953 21.7578 21.3219 21.7953 21.5516 21.5094L22.0016 20.9469C22.2172 20.6656 22.7375 20.4875 23.2484 20.7734C23.9375 21.1625 24.8141 21.7672 25.3953 22.3156C25.7234 22.5828 25.7984 22.9906 25.5734 23.4219Z" fill="white"/>
</g>
<defs>
<clipPath id="clip0_201_7">
<rect width="24" height="24" fill="white" transform="translate(8 8)"/>
</clipPath>
</defs>
</svg>
